<svg width="440" height="48" viewBox="0 0 440 48" fill="none" xmlns="http://www.w3.org/2000/svg">
<rect width="440" height="48" rx="4" fill="#F2F2F2"/>
<path d="M28.55 21.478C28.55 22.09 28.436 22.708 28.208 23.332C27.992 23.956 27.71 24.568 27.362 25.168C27.026 25.768 26.648 26.35 26.228 26.914C25.82 27.466 25.418 27.976 25.022 28.444L24.068 29.182V29.272L25.364 29.02H28.82V31H21.242V29.794C21.53 29.494 21.854 29.146 22.214 28.75C22.574 28.342 22.934 27.916 23.294 27.472C23.666 27.016 24.026 26.548 24.374 26.068C24.722 25.588 25.034 25.108 25.31 24.628C25.586 24.136 25.802 23.662 25.958 23.206C26.126 22.75 26.21 22.318 26.21 21.91C26.21 21.418 26.066 21.016 25.778 20.704C25.502 20.38 25.058 20.218 24.446 20.218C24.062 20.218 23.666 20.302 23.258 20.47C22.862 20.626 22.526 20.83 22.25 21.082L21.314 19.426C21.782 19.042 22.31 18.736 22.898 18.508C23.498 18.268 24.2 18.148 25.004 18.148C25.52 18.148 25.994 18.22 26.426 18.364C26.858 18.508 27.23 18.718 27.542 18.994C27.854 19.27 28.1 19.618 28.28 20.038C28.46 20.446 28.55 20.926 28.55 21.478ZM32.0849 31L36.2069 21.298L36.9989 20.416L35.9189 20.596H31.2929V18.4H39.4109V19.084L34.3709 31H32.0849ZM44.9837 22.522C45.4637 22.306 46.0337 22.138 46.6937 22.018C47.3537 21.886 48.0437 21.82 48.7637 21.82C49.3877 21.82 49.9097 21.898 50.3297 22.054C50.7497 22.198 51.0797 22.408 51.3197 22.684C51.5717 22.96 51.7457 23.29 51.8417 23.674C51.9497 24.058 52.0037 24.49 52.0037 24.97C52.0037 25.498 51.9857 26.032 51.9497 26.572C51.9137 27.1 51.8897 27.622 51.8777 28.138C51.8777 28.654 51.8957 29.158 51.9317 29.65C51.9677 30.13 52.0577 30.586 52.2017 31.018H50.2937L49.9157 29.776H49.8257C49.5857 30.148 49.2497 30.472 48.8177 30.748C48.3977 31.012 47.8517 31.144 47.1797 31.144C46.7597 31.144 46.3817 31.084 46.0457 30.964C45.7097 30.832 45.4217 30.652 45.1817 30.424C44.9417 30.184 44.7557 29.908 44.6237 29.596C44.4917 29.272 44.4257 28.912 44.4257 28.516C44.4257 27.964 44.5457 27.502 44.7857 27.13C45.0377 26.746 45.3917 26.44 45.8477 26.212C46.3157 25.972 46.8677 25.81 47.5037 25.726C48.1517 25.63 48.8717 25.6 49.6637 25.636C49.7477 24.964 49.6997 24.484 49.5197 24.196C49.3397 23.896 48.9377 23.746 48.3137 23.746C47.8457 23.746 47.3477 23.794 46.8197 23.89C46.3037 23.986 45.8777 24.112 45.5417 24.268L44.9837 22.522ZM47.9537 29.218C48.4217 29.218 48.7937 29.116 49.0697 28.912C49.3457 28.696 49.5497 28.468 49.6817 28.228V27.058C49.3097 27.022 48.9497 27.016 48.6017 27.04C48.2657 27.064 47.9657 27.118 47.7017 27.202C47.4377 27.286 47.2277 27.406 47.0717 27.562C46.9157 27.718 46.8377 27.916 46.8377 28.156C46.8377 28.492 46.9337 28.756 47.1257 28.948C47.3297 29.128 47.6057 29.218 47.9537 29.218ZM59.1514 24.07H56.3074V31H53.9674V22H61.4914V31H59.1514V24.07ZM63.5475 22H65.2575L65.5275 23.08H65.5995C65.9115 22.624 66.2775 22.288 66.6975 22.072C67.1295 21.856 67.6515 21.748 68.2635 21.748C69.3915 21.748 70.2375 22.108 70.8015 22.828C71.3655 23.536 71.6475 24.682 71.6475 26.266C71.6475 27.034 71.5575 27.73 71.3775 28.354C71.1975 28.966 70.9275 29.488 70.5675 29.92C70.2195 30.352 69.7875 30.682 69.2715 30.91C68.7675 31.138 68.1855 31.252 67.5255 31.252C67.1535 31.252 66.8475 31.222 66.6075 31.162C66.3675 31.114 66.1275 31.03 65.8875 30.91V34.6H63.5475V22ZM67.5615 23.728C67.1055 23.728 66.7455 23.842 66.4815 24.07C66.2295 24.298 66.0315 24.64 65.8875 25.096V28.84C66.0555 28.972 66.2355 29.08 66.4275 29.164C66.6315 29.236 66.8955 29.272 67.2195 29.272C67.8915 29.272 68.3955 29.038 68.7315 28.57C69.0675 28.09 69.2355 27.304 69.2355 26.212C69.2355 25.42 69.1035 24.808 68.8395 24.376C68.5755 23.944 68.1495 23.728 67.5615 23.728ZM80.4682 30.226C80.1082 30.514 79.6162 30.76 78.9922 30.964C78.3802 31.156 77.7262 31.252 77.0302 31.252C75.5782 31.252 74.5162 30.832 73.8442 29.992C73.1722 29.14 72.8362 27.976 72.8362 26.5C72.8362 24.916 73.2142 23.728 73.9702 22.936C74.7262 22.144 75.7882 21.748 77.1562 21.748C77.6122 21.748 78.0562 21.808 78.4882 21.928C78.9202 22.048 79.3042 22.246 79.6402 22.522C79.9762 22.798 80.2462 23.17 80.4502 23.638C80.6542 24.106 80.7562 24.688 80.7562 25.384C80.7562 25.636 80.7382 25.906 80.7022 26.194C80.6782 26.482 80.6362 26.782 80.5762 27.094H75.1762C75.2122 27.85 75.4042 28.42 75.7522 28.804C76.1122 29.188 76.6882 29.38 77.4802 29.38C77.9722 29.38 78.4102 29.308 78.7942 29.164C79.1902 29.008 79.4902 28.852 79.6942 28.696L80.4682 30.226ZM77.1202 23.62C76.5082 23.62 76.0522 23.806 75.7522 24.178C75.4642 24.538 75.2902 25.024 75.2302 25.636H78.5782C78.6262 24.988 78.5242 24.49 78.2722 24.142C78.0322 23.794 77.6482 23.62 77.1202 23.62ZM87.1115 24.07H85.3295C85.2575 24.922 85.1735 25.768 85.0775 26.608C84.9815 27.448 84.8255 28.204 84.6095 28.876C84.4055 29.536 84.1235 30.076 83.7635 30.496C83.4035 30.904 82.9355 31.108 82.3595 31.108C81.6635 31.108 81.1715 31.018 80.8835 30.838L81.1715 28.894C81.3635 28.966 81.5435 29.002 81.7115 29.002C81.9515 29.002 82.1615 28.9 82.3415 28.696C82.5215 28.492 82.6715 28.126 82.7915 27.598C82.9235 27.07 83.0255 26.356 83.0975 25.456C83.1815 24.544 83.2415 23.392 83.2775 22H89.4515V31H87.1115V24.07ZM96.2311 27.598L95.1511 27.814L93.4231 31H90.6331L92.3791 28.174L93.2611 27.508C92.6731 27.412 92.1871 27.136 91.8031 26.68C91.4191 26.212 91.2271 25.63 91.2271 24.934C91.2271 23.842 91.5871 23.038 92.3071 22.522C93.0391 22.006 94.1551 21.748 95.6551 21.748C96.2311 21.748 96.7651 21.778 97.2571 21.838C97.7611 21.898 98.1991 21.964 98.5711 22.036V31H96.2311V27.598ZM96.2311 26.374V23.89C96.0991 23.83 95.9551 23.788 95.7991 23.764C95.6431 23.74 95.4931 23.728 95.3491 23.728C94.8091 23.728 94.3891 23.842 94.0891 24.07C93.7891 24.298 93.6391 24.64 93.6391 25.096C93.6391 25.552 93.8011 25.888 94.1251 26.104C94.4611 26.32 94.9471 26.422 95.5831 26.41L96.2311 26.374ZM112.609 21.478C112.609 22.09 112.495 22.708 112.267 23.332C112.051 23.956 111.769 24.568 111.421 25.168C111.085 25.768 110.707 26.35 110.287 26.914C109.879 27.466 109.477 27.976 109.081 28.444L108.127 29.182V29.272L109.423 29.02H112.879V31H105.301V29.794C105.589 29.494 105.913 29.146 106.273 28.75C106.633 28.342 106.993 27.916 107.353 27.472C107.725 27.016 108.085 26.548 108.433 26.068C108.781 25.588 109.093 25.108 109.369 24.628C109.645 24.136 109.861 23.662 110.017 23.206C110.185 22.75 110.269 22.318 110.269 21.91C110.269 21.418 110.125 21.016 109.837 20.704C109.561 20.38 109.117 20.218 108.505 20.218C108.121 20.218 107.725 20.302 107.317 20.47C106.921 20.626 106.585 20.83 106.309 21.082L105.373 19.426C105.841 19.042 106.369 18.736 106.957 18.508C107.557 18.268 108.259 18.148 109.063 18.148C109.579 18.148 110.053 18.22 110.485 18.364C110.917 18.508 111.289 18.718 111.601 18.994C111.913 19.27 112.159 19.618 112.339 20.038C112.519 20.446 112.609 20.926 112.609 21.478ZM114.991 24.682C114.991 22.474 115.369 20.836 116.125 19.768C116.881 18.688 117.967 18.148 119.383 18.148C120.895 18.148 122.005 18.682 122.713 19.75C123.421 20.806 123.775 22.45 123.775 24.682C123.775 26.902 123.391 28.552 122.623 29.632C121.867 30.712 120.781 31.252 119.365 31.252C117.865 31.252 116.761 30.688 116.053 29.56C115.345 28.42 114.991 26.794 114.991 24.682ZM117.331 24.682C117.331 26.146 117.487 27.28 117.799 28.084C118.123 28.876 118.651 29.272 119.383 29.272C120.091 29.272 120.607 28.906 120.931 28.174C121.267 27.442 121.435 26.278 121.435 24.682C121.435 23.23 121.279 22.108 120.967 21.316C120.655 20.524 120.121 20.128 119.365 20.128C118.645 20.128 118.123 20.5 117.799 21.244C117.487 21.988 117.331 23.134 117.331 24.682ZM133.034 21.478C133.034 22.09 132.92 22.708 132.692 23.332C132.476 23.956 132.194 24.568 131.846 25.168C131.51 25.768 131.132 26.35 130.712 26.914C130.304 27.466 129.902 27.976 129.506 28.444L128.552 29.182V29.272L129.848 29.02H133.304V31H125.726V29.794C126.014 29.494 126.338 29.146 126.698 28.75C127.058 28.342 127.418 27.916 127.778 27.472C128.15 27.016 128.51 26.548 128.858 26.068C129.206 25.588 129.518 25.108 129.794 24.628C130.07 24.136 130.286 23.662 130.442 23.206C130.61 22.75 130.694 22.318 130.694 21.91C130.694 21.418 130.55 21.016 130.262 20.704C129.986 20.38 129.542 20.218 128.93 20.218C128.546 20.218 128.15 20.302 127.742 20.47C127.346 20.626 127.01 20.83 126.734 21.082L125.798 19.426C126.266 19.042 126.794 18.736 127.382 18.508C127.982 18.268 128.684 18.148 129.488 18.148C130.004 18.148 130.478 18.22 130.91 18.364C131.342 18.508 131.714 18.718 132.026 18.994C132.338 19.27 132.584 19.618 132.764 20.038C132.944 20.446 133.034 20.926 133.034 21.478ZM135.417 24.682C135.417 22.474 135.795 20.836 136.551 19.768C137.307 18.688 138.393 18.148 139.809 18.148C141.321 18.148 142.431 18.682 143.139 19.75C143.847 20.806 144.201 22.45 144.201 24.682C144.201 26.902 143.817 28.552 143.049 29.632C142.293 30.712 141.207 31.252 139.791 31.252C138.291 31.252 137.187 30.688 136.479 29.56C135.771 28.42 135.417 26.794 135.417 24.682ZM137.757 24.682C137.757 26.146 137.913 27.28 138.225 28.084C138.549 28.876 139.077 29.272 139.809 29.272C140.517 29.272 141.033 28.906 141.357 28.174C141.693 27.442 141.861 26.278 141.861 24.682C141.861 23.23 141.705 22.108 141.393 21.316C141.081 20.524 140.547 20.128 139.791 20.128C139.071 20.128 138.549 20.5 138.225 21.244C137.913 21.988 137.757 23.134 137.757 24.682Z" fill="black"/>
<g opacity="0.3">
<path d="M407.75 26C408.05 26 408.25 25.8 408.25 25.5C408.25 25.2 408.05 25 407.75 25C407.45 25 407.25 25.2 407.25 25.5C407.25 25.8 407.45 26 407.75 26Z" fill="black"/>
<path d="M417 18H415V16H414V18H406V16H405V18H403C402.4 18 402 18.4 402 19V30C402 30.5 402.4 31 403 31H417C417.5 31 418 30.5 418 30V19C418 18.4 417.5 18 417 18ZM417 30H403V23H417V30ZM403 22V19H405V21H406V19H414V21H415V19H417V22H403Z" fill="black"/>
<path d="M410 26C410.3 26 410.5 25.8 410.5 25.5C410.5 25.2 410.3 25 410 25C409.7 25 409.5 25.2 409.5 25.5C409.5 25.8 409.7 26 410 26Z" fill="black"/>
<path d="M412.25 26C412.55 26 412.75 25.8 412.75 25.5C412.75 25.2 412.55 25 412.25 25C411.95 25 411.75 25.2 411.75 25.5C411.75 25.8 411.95 26 412.25 26Z" fill="black"/>
<path d="M407.75 27C407.45 27 407.25 27.2 407.25 27.5C407.25 27.8 407.45 28 407.75 28C408.05 28 408.25 27.8 408.25 27.5C408.25 27.2 408.05 27 407.75 27Z" fill="black"/>
<path d="M405.5 26C405.8 26 406 25.8 406 25.5C406 25.2 405.8 25 405.5 25C405.2 25 405 25.2 405 25.5C405 25.8 405.2 26 405.5 26Z" fill="black"/>
<path d="M405.5 27C405.2 27 405 27.2 405 27.5C405 27.8 405.2 28 405.5 28C405.8 28 406 27.8 406 27.5C406 27.2 405.8 27 405.5 27Z" fill="black"/>
<path d="M410 27C409.7 27 409.5 27.2 409.5 27.5C409.5 27.8 409.7 28 410 28C410.3 28 410.5 27.8 410.5 27.5C410.5 27.2 410.3 27 410 27Z" fill="black"/>
<path d="M412.25 27C411.95 27 411.75 27.2 411.75 27.5C411.75 27.8 411.95 28 412.25 28C412.55 28 412.75 27.8 412.75 27.5C412.75 27.2 412.55 27 412.25 27Z" fill="black"/>
<path d="M414.5 26C414.8 26 415 25.8 415 25.5C415 25.2 414.8 25 414.5 25C414.2 25 414 25.2 414 25.5C414 25.8 414.2 26 414.5 26Z" fill="black"/>
<path d="M414.5 27C414.2 27 414 27.2 414 27.5C414 27.8 414.2 28 414.5 28C414.8 28 415 27.8 415 27.5C415 27.2 414.8 27 414.5 27Z" fill="black"/>
</g>
</svg>
